<svg width="800" height="450" viewBox="0 0 800 450" xmlns="http://www.w3.org/2000/svg"><defs><linearGradient x1="0%" y1="50%" x2="99.139%" y2="50%" id="a"><stop stop-color="#6B7A90" stop-opacity=".72" offset="0%"/><stop stop-color="#6B7A90" stop-opacity=".24" offset="100%"/></linearGradient><linearGradient x1="50%" y1="100%" x2="50%" y2="0%" id="b"><stop stop-color="#6B7A90" stop-opacity=".72" offset="0%"/><stop stop-color="#6B7A90" stop-opacity=".32" offset="100%"/></linearGradient><linearGradient x1="50%" y1="0%" x2="50%" y2="100%" id="c"><stop stop-color="#A59AEE" stop-opacity=".8" offset="0%"/><stop stop-color="#7E6EE6" offset="100%"/></linearGradient><linearGradient x1="50%" y1="0%" x2="50%" y2="100%" id="d"><stop stop-color="#6B7A90" offset="0%"/><stop stop-color="#6B7A90" stop-opacity="0" offset="100%"/></linearGradient></defs><g fill="none" fill-rule="evenodd"><rect width="800" height="450" rx="2" fill="#252E3B"/><path d="M0 0h572v40H0z" fill="url(#a)" fill-opacity=".8" transform="translate(204 24)"/><path fill="#818FA0" opacity=".08" d="M204 347h572v79H204z"/><path fill="#59687C" d="M238 371h8v8h-8zm0 24h8v8h-8z"/><path fill="#7E6EE6" d="M262 373h164v4H262z"/><path fill="#59687C" d="M442 373h32v4h-32zm128 0h32v4h-32z"/><path fill="#7E6EE6" d="M262 397h48v4h-48z"/><path fill="#59687C" d="M326 397h102v4H326z"/><path fill="#7E6EE6" d="M660 397h32v4h-32z"/><path fill-opacity=".8" fill="url(#b)" d="M34 33h24v176H34zm80 35h24v141h-24z" transform="translate(204 88)"/><path fill="url(#c)" d="M154 159h24v50h-24zM74 88h24v121H74z" transform="translate(204 88)"/><path fill-opacity=".8" fill="url(#b)" d="M194 121h24v88h-24zm80-12h24v100h-24z" transform="translate(204 88)"/><path fill="url(#c)" d="M314 48h24v161h-24z" transform="translate(204 88)"/><path fill-opacity=".8" fill="url(#b)" d="M354 109h24v100h-24zm80-61h24v161h-24zm80 76h24v85h-24z" transform="translate(204 88)"/><path fill="url(#c)" d="M394 135h24v74h-24zm80-39h24v113h-24zM234 68h24v141h-24z" transform="translate(204 88)"/><path fill="#4A5667" opacity=".24" d="M204 321h572v2H204z"/><path fill="#7E6EE6" d="M720 88h24v4h-24z"/><path fill="#59687C" d="M688 88h24v4h-24zm64 0h24v4h-24z"/><path d="M2 0h178v450H2a2 2 0 0 1-2-2V2a2 2 0 0 1 2-2z" fill-opacity=".8" fill="url(#d)"/><g transform="translate(20 12)"><circle fill="#F66" cx="4" cy="4" r="4"/><circle fill="#FFAF66" cx="20" cy="4" r="4"/><circle fill="#5AE0D2" cx="36" cy="4" r="4"/></g></g></svg>