<?xml version="1.0" encoding="iso-8859-1"?>
<!-- Generator: Adobe Illustrator 19.0.0, SVG Export Plug-In . SVG Version: 6.00 Build 0)  -->
<svg version="1.1" id="Capa_1" xmlns="http://www.w3.org/2000/svg" xmlns:xlink="http://www.w3.org/1999/xlink" x="0px" y="0px" height="64px" width="64px"
	 viewBox="0 0 512 512" style="enable-background:new 0 0 512 512;" xml:space="preserve">
<g>
	<g>
		<path d="M192.358,291.361c-3.9-3.91-10.24-3.91-14.14,0c-3.91,3.9-3.91,10.23,0,14.14c3.9,3.9,10.24,3.9,14.14,0
			C196.268,301.591,196.268,295.261,192.358,291.361z"/>
	</g>
</g>
<g>
	<g>
		<path d="M503.207,65.36L446.628,8.784C435.048-2.77,416.12-3.084,404.216,8.792c-11.724,11.724-11.725,30.696,0,42.422l7.07,7.07
			l-48.009,48.016c-3.277-3.277-32.158-32.158-35.358-35.359c-3.906-3.903-10.237-3.904-14.142,0
			c-3.905,3.905-3.906,10.237,0,14.143l7.069,7.069C317.272,95.726,150.69,262.319,138.09,274.92
			c-16.86,16.859-23.314,40.034-19.403,61.833l-18.247,18.247c-11.695,11.696-11.695,30.724-0.001,42.421l-97.51,97.507
			c-3.905,3.906-3.905,10.238,0,14.143c3.906,3.905,10.237,3.905,14.143,0l97.508-97.508c11.695,11.694,30.725,11.695,42.421-0.001
			l18.25-18.25c22.74,4.06,45.848-3.418,61.828-19.4c39.545-39.542,142.556-142.548,182.768-182.758l7.069,7.069
			c3.906,3.905,10.237,3.905,14.142,0s3.906-10.237,0-14.143c-3.201-3.201-32.053-32.054-35.359-35.359l48.017-48.008l7.06,7.06
			c11.721,11.752,30.744,11.728,42.432,0.01C514.93,96.06,514.933,77.087,503.207,65.36z M142.859,397.418
			c-3.898,3.898-10.241,3.898-14.138,0c-17.235-17.235-13.042-13.043-14.14-14.141c-3.899-3.896-3.899-10.238-0.001-14.136
			l11.437-11.437c3.024,5.587,6.813,10.737,11.213,15.295c4.979,5.158,10.741,9.559,17.065,12.982L142.859,397.418z M270.14,312.57
			l-7.07-7.07c-3.905-3.904-10.237-3.904-14.142,0c-3.905,3.905-3.905,10.237,0,14.143l7.069,7.069l-14.14,14.139l-21.219-21.213
			c-3.905-3.903-10.237-3.903-14.142,0.002c-3.905,3.906-3.903,10.238,0.002,14.143l21.216,21.209l-4.778,4.777
			c-19.669,19.671-51.933,19.584-71.445-0.768c-18.512-19.308-18.832-50.369,0.74-69.939l61.339-61.347l70.713,70.712L270.14,312.57
			z M405.704,177.011l-22.425,22.424l-21.222-21.215c-3.905-3.904-10.237-3.903-14.142,0.002
			c-3.905,3.906-3.903,10.238,0.002,14.143l21.219,21.212l-14.147,14.146l-7.072-7.072c-3.906-3.903-10.237-3.904-14.142,0
			c-3.905,3.905-3.906,10.237,0,14.143l7.071,7.072l-14.138,14.137l-21.211-21.211c-3.905-3.904-10.237-3.904-14.142,0
			c-3.905,3.905-3.905,10.237,0,14.143l21.21,21.21l-14.143,14.142l-70.713-70.712l107.278-107.278L405.704,177.011z
			 M391.557,134.58l-14.139-14.139l48.009-48.016l14.147,14.147L391.557,134.58z M489.056,93.649
			c-3.835,3.844-10.174,3.955-14.128-0.01c-4.802-4.802-48.956-48.956-56.57-56.57c-3.92-3.919-3.894-10.242-0.01-14.127
			c3.949-3.94,10.245-3.902,14.147-0.009l56.57,56.569C492.95,83.387,492.998,89.706,489.056,93.649z"/>
	</g>
</g>
<g>
</g>
<g>
</g>
<g>
</g>
<g>
</g>
<g>
</g>
<g>
</g>
<g>
</g>
<g>
</g>
<g>
</g>
<g>
</g>
<g>
</g>
<g>
</g>
<g>
</g>
<g>
</g>
<g>
</g>
</svg>
