<svg xmlns="http://www.w3.org/2000/svg" xmlns:xlink="http://www.w3.org/1999/xlink" version="1.1" x="0px" y="0px" width="64px" height="64px" viewBox="0 0 161.492 150.415" enable-background="new 0 0 161.492 162.732" xml:space="preserve"><g><g><circle cx="55.749" cy="84.113" r="8.727"/></g><g><circle cx="79.749" cy="103.75" r="8.728"/></g><g><circle cx="99.385" cy="95.75" r="8.728"/></g><g><circle cx="32.476" cy="43.386" r="8.727"/></g><g><circle cx="77.567" cy="79.022" r="8.727"/></g><g><circle cx="103.749" cy="119.75" r="8.728"/></g><g><circle cx="52.839" cy="60.841" r="8.727"/></g><g><circle cx="78.294" cy="52.841" r="8.727"/></g><g><path d="M125.567,51.386c-5.614,0-10.182-4.568-10.182-10.182s4.567-10.182,10.182-10.182c5.613,0,10.182,4.568,10.182,10.182    S131.18,51.386,125.567,51.386z M125.567,33.931c-4.009,0-7.272,3.263-7.272,7.273s3.264,7.273,7.272,7.273    c4.011,0,7.272-3.263,7.272-7.273S129.578,33.931,125.567,33.931z"/></g></g></svg>